<svg width="512" height="512" viewBox="0 0 512 512" fill="none" xmlns="http://www.w3.org/2000/svg">
<path d="M471.04 258.56C471.04 202.207 448.923 148.162 409.556 108.314C370.188 68.4662 316.794 46.08 261.12 46.08C205.446 46.08 152.052 68.4662 112.684 108.314C73.3165 148.162 51.2 202.207 51.2 258.56L261.12 258.56H471.04Z" fill="#404040"/>
<path d="M375.622 406.528C375.622 423.638 369.59 440.046 358.853 452.145C348.117 464.243 333.555 471.04 318.371 471.04C303.187 471.04 288.625 464.243 277.888 452.145C267.152 440.046 261.12 423.638 261.12 406.528V256M471.04 256C466.055 197.156 441.785 142.518 402.969 102.755C364.153 62.9924 313.578 40.96 261.12 40.96C208.662 40.96 158.087 62.9924 119.271 102.755C80.4546 142.518 56.1847 197.156 51.2 256H471.04Z" stroke="#6100FF" stroke-width="25" stroke-linecap="round" stroke-linejoin="round"/>
</svg>
