<svg width="512" height="512" viewBox="0 0 512 512" fill="none" xmlns="http://www.w3.org/2000/svg">
<path d="M470.299 250.92C470.299 195.149 448.453 141.662 409.568 102.226C370.682 62.7898 317.942 40.6348 262.95 40.6348C207.958 40.6348 155.218 62.7898 116.333 102.226C77.4474 141.662 55.6018 195.149 55.6018 250.92L262.95 250.92H470.299Z" fill="#404040"/>
<path d="M375.622 406.528C375.622 423.638 369.59 440.046 358.853 452.145C348.117 464.243 333.555 471.04 318.371 471.04C303.187 471.04 288.625 464.243 277.888 452.145C267.152 440.046 261.12 423.638 261.12 406.528V256M471.04 256C466.055 197.156 441.785 142.518 402.969 102.755C364.153 62.9924 313.578 40.96 261.12 40.96C208.662 40.96 158.087 62.9924 119.271 102.755C80.4546 142.518 56.1847 197.156 51.2 256H471.04Z" stroke="white" stroke-width="25" stroke-linecap="round" stroke-linejoin="round"/>
</svg>
